<svg id="ring_thick" data-name="ring thick" xmlns="http://www.w3.org/2000/svg" viewBox="0 0 1400 1400"><defs><style>.cls-1{fill:#ad977b;}</style></defs><title>Artboard 1</title><path class="cls-1" d="M855.63,389.62,969,225.24,808.24,109H591.76L431,225.24,544.37,389.62C364.05,453.25,235.29,622.54,235.29,826.41c0,256.33,208,464.59,464.71,464.59s464.71-208.26,464.71-464.59C1164.71,622.54,1036,453.25,855.63,389.62ZM633.47,209.17H766.53L825,252.41l-68.51,99.78c-18.79-4.09-37.76-4.86-56.49-4.86s-37.7.77-56.49,4.86L575,252.41ZM700,1178.37c-193.46,0-351.34-158.66-351.34-351.25C348.66,631.91,506,475,700,475s351.34,156.91,351.34,352.12C1051.34,1019.71,893.46,1178.37,700,1178.37Z"/></svg>